<svg width="26" height="26" viewBox="0 0 26 26" fill="none" xmlns="http://www.w3.org/2000/svg">
<g clip-path="url(#clip0_5202_50)">
<path fill-rule="evenodd" clip-rule="evenodd" d="M17.4401 0C12.7135 0 8.86691 3.54909 8.86691 7.9101C8.86691 9.07263 9.15357 10.1675 9.6469 11.1639L0.233715 19.8491C0.0737171 19.9967 -0.00628157 20.1935 0.000384989 20.3965L0.187049 25.2926C0.187049 25.3049 0.200382 25.3172 0.200382 25.3295C0.213715 25.4464 0.253714 25.551 0.313713 25.6432C0.333713 25.6678 0.347046 25.6925 0.367046 25.7171C0.453711 25.8155 0.553709 25.9016 0.687041 25.9446L0.693707 25.9508C0.787039 25.9877 0.887037 26 0.987036 26H4.42698C4.87364 26 5.22697 25.6679 5.22697 25.2619V22.3956L5.2803 22.3463H8.38692C8.83358 22.3463 9.1869 22.0142 9.1869 21.6082V18.7419L13.4002 14.8545C14.6068 15.4511 15.9668 15.8264 17.4268 15.8264C22.1534 15.8264 26 12.2773 26 7.91625C26.0133 3.54909 22.1667 0 17.4401 0ZM3.62675 24.5238H2.92676L3.62675 23.8779V24.5238ZM7.59354 20.8701H6.89355L7.59354 20.2243V20.8701ZM1.72678 23.5396L1.62012 20.6671L10.4733 12.4925C10.92 13.0646 11.46 13.5689 12.0466 14.018L1.72678 23.5396ZM17.4402 14.3378C13.5936 14.3378 10.4736 11.453 10.4736 7.91008C10.4736 4.36714 13.6002 1.48235 17.4402 1.48235C21.2801 1.48235 24.4067 4.36714 24.4067 7.91008C24.4134 11.4592 21.2868 14.3378 17.4402 14.3378Z" fill="#2E323F"/>
</g>
<defs>
<clipPath id="clip0_5202_50">
<rect width="26" height="26" fill="white"/>
</clipPath>
</defs>
</svg>
